<?xml version="1.0" encoding="UTF-8" standalone="no"?>
<svg width="207px" height="41px" viewBox="0 0 207 41" version="1.1" xmlns="http://www.w3.org/2000/svg" xmlns:xlink="http://www.w3.org/1999/xlink">
    <!-- Generator: sketchtool 41 (35326) - http://www.bohemiancoding.com/sketch -->
    <title>9016A6DF-A4F5-407F-87B3-558818BE9B0F</title>
    <desc>Created with sketchtool.</desc>
    <defs></defs>
    <g id="SW---UI-Kit" stroke="none" stroke-width="1" fill="none" fill-rule="evenodd">
        <g id="Components-/-Header" transform="translate(-350.000000, -454.000000)">
            <g id="Desktop" transform="translate(160.000000, 228.000000)">
                <g id="Group-2" transform="translate(160.000000, 152.000000)">
                    <g id="Components-/-Header-/-Brand-Bar" transform="translate(0.000000, 48.000000)">
                        <g id="SW_Logo_RGB" transform="translate(30.000000, 26.000000)">
                            <path d="M193.103341,0.0757608696 C181.472974,6.76054348 169.088664,11.7072826 155.258922,11.1056522 C145.582565,10.6243478 136.642306,8.405 127.309461,6.78282609 C121.152996,5.70434783 114.99653,7.20173913 110.205194,11.4042391 L107.809526,13.5656522 L107.666767,13.5656522 C114.264892,6.12326087 123.057931,3.2398913 132.390776,4.1401087 L137.521164,4.79967391 L150.373901,7.02793478 C161.366315,8.81054348 173.973685,8.4673913 184.140776,4.08663043 C187.196935,2.91242588 190.176851,1.54905759 193.06319,0.00445652174 L193.103341,0.0757608696 Z" id="Shape" fill="#D3292E"></path>
                            <path d="M206.420043,15.1833696 L205.92931,17.3447826 C205.536724,17.2868478 205.246746,16.8055435 204.854159,16.6852174 C203.779009,16.1459783 202.360345,15.7270652 201.137974,16.2663043 C200.897388,16.4480056 200.815731,16.7724335 200.941681,17.0461957 L201.387802,17.4651087 C203.390884,18.8020652 207.102608,18.8020652 206.959849,22.6257609 C206.714483,24.1855435 205.443039,24.9654348 204.372349,25.4467391 C201.829461,26.1063043 198.849375,25.6873913 196.310948,25.206087 C196.163728,24.8451087 196.360022,24.4261957 196.360022,24.0072826 L196.458168,22.5678261 C197.876832,23.9493478 199.97806,24.796087 201.735776,23.7086957 C202.003851,23.4184318 202.097294,23.0077139 201.981142,22.6302174 L201.490409,22.148913 C199.634547,21.1283696 196.94444,20.9501087 196.163728,18.1870652 C195.967435,17.1665217 196.360022,16.5069565 196.846293,15.8473913 C198.898448,14.2252174 201.490409,14.5861957 203.93069,14.768913 L206.420043,15.1833696 Z" id="Shape" fill="#000000"></path>
                            <path d="M195.13319,15.0051087 L191.564224,25.5091304 L186.143858,25.5091304 L186.340151,24.7871739 C185.849418,23.2853261 185.510366,21.5472826 184.921487,20.1033696 C184.140776,21.8458696 183.551897,23.7042391 182.918405,25.5046739 L177.564957,25.5626087 C177.74487,25.2095172 177.780073,24.8003171 177.663103,24.4217391 L175.218362,16.4980435 L174.326121,15.058587 C176.231056,15.058587 178.037845,14.9382609 179.849095,15.058587 L182.04847,22.6346739 C182.878254,21.2531522 183.172694,19.3947826 183.806185,17.8929348 C184.028187,17.2407722 183.97504,16.5264515 183.658966,15.9142391 L183.074547,15.0229348 L188.401228,15.0229348 C189.231013,17.5453261 189.739591,20.183587 190.69875,22.5990217 L190.895043,22.3004348 L192.505539,17.4963043 C192.677973,16.6227892 192.445042,15.7182622 191.872047,15.0363043 C192.956408,14.9367585 194.04712,14.9263249 195.13319,15.0051087 L195.13319,15.0051087 Z" id="Shape" fill="#000000"></path>
                            <path d="M88.8047845,15.6646739 C88.6084914,16.4445652 88.4121983,17.2244565 88.2694397,18.0667391 C86.8820043,17.0372826 85.5347198,16.3242391 83.8706897,16.5648913 C83.5964706,16.5927346 83.3659269,16.7826016 83.2862716,17.0461957 C83.0899784,17.5275 83.5807112,17.826087 83.8260776,18.0088043 C85.6819397,19.2076087 88.3720474,19.1496739 89.3490517,22.0196739 C89.6434914,23.1605435 89.2018319,23.9983696 88.5683405,24.8406522 C85.7845474,27.1803261 81.7739224,26.2221739 78.552931,25.6784783 C78.552931,24.7203261 78.6510776,23.9359783 78.7001509,22.9778261 C80.1188147,24.3593478 82.1709698,25.0768478 83.9286853,24.3147826 C84.2721983,24.0741304 84.5086422,23.4992391 84.2721983,23.173913 C83.0989009,21.9751087 81.4884052,21.8369565 80.1678879,21.0125 C79.2398358,20.4794659 78.6094905,19.5489155 78.4592457,18.4901087 C78.3945371,17.3968135 78.9405191,16.35745 79.8779095,15.7894565 C82.5947845,14.5861957 85.9228448,15.2457609 88.8047845,15.6646739 L88.8047845,15.6646739 Z" id="Shape" fill="#000000"></path>
                            <path d="M10.6712069,15.7270652 C10.5306532,16.2051393 10.4145121,16.69004 10.3232328,17.1798913 L10.1893966,18.0711957 C8.85103448,16.9303261 7.06655172,16.288587 5.40252155,16.81 C5.12877983,17.0198592 5.04592942,17.3960565 5.20622845,17.7013043 C5.80403017,18.6861957 9.60497845,19.0382609 11.0682543,21.4848913 C11.3314337,22.151858 11.3995075,22.8797919 11.2645474,23.583913 C10.2384698,26.4048913 7.59743534,26.2266304 5.40252155,26.3469565 C3.74706886,26.3128247 2.10080749,26.0915603 0.495193966,25.6873913 C0.640615886,24.8547231 0.706343505,24.0101149 0.691487069,23.165 C2.02984914,24.2434783 3.57342672,25.0857609 5.33560345,24.6044565 C5.79579174,24.5001846 6.16700475,24.1615333 6.31260776,23.7131522 C6.32742246,23.304565 6.0977469,22.926261 5.72818966,22.7505435 C3.82325431,21.5517391 0.205215517,21.4893478 0.450581897,17.7681522 C0.990387931,15.486413 3.12730603,15.366087 4.80025862,15.1878261 C6.75426724,15.0675 8.76181034,15.5443478 10.6712069,15.7270652 L10.6712069,15.7270652 Z" id="Shape" fill="#000000"></path>
                            <path d="M24.0592888,15.785 L23.568556,18.0667391 C22.3952586,16.9258696 20.8918319,16.3242391 19.3660991,16.8055435 C18.5363147,17.1665217 17.9474353,18.245 17.8983621,19.3279348 C17.8492888,20.9501087 17.6039224,22.8708696 18.7906034,23.9493478 C19.9148276,25.1481522 21.9669828,24.9075 23.1893534,24.0696739 L24.1663578,23.2273913 C24.215431,23.9493478 24.215431,24.7292391 24.215431,25.3888043 C21.0390517,26.65 16.3503233,27.171413 13.7583621,23.8869565 C12.8480285,22.4841166 12.5650504,20.7654166 12.9776509,19.1452174 C13.8698922,16.2618478 16.3993966,15.3036957 18.6969181,15.1833696 C20.5840086,15.0051087 22.2525,15.5443478 24.0592888,15.785 L24.0592888,15.785 Z" id="Shape" fill="#000000"></path>
                            <path d="M68.5732112,15.2457609 C68.4259914,16.2663043 67.9887931,17.108587 67.8906466,18.1291304 C66.9184633,17.3803905 65.7433663,16.9409683 64.5179741,16.8679348 L64.3707543,16.9882609 L64.4198276,25.0902174 C64.5024611,25.3829203 64.617685,25.6654458 64.7633405,25.9325 L58.9503879,25.9325 L59.2939009,24.9119565 C59.3429741,22.0909783 59.4411207,19.7513043 59.3429741,16.9882609 C57.8253649,16.9289412 56.3306775,17.372333 55.091444,18.2494565 C55.3883124,17.3025319 55.6325642,16.3399408 55.8230819,15.366087 C60.1192241,15.4240217 64.2235345,15.7270652 68.5732112,15.2457609 L68.5732112,15.2457609 Z" id="Shape" fill="#000000"></path>
                            <path d="M53.150819,15.486413 L54.5694828,15.3081522 C54.282455,16.2298592 54.0705991,17.1732671 53.9359914,18.1291304 C52.8608405,17.4071739 51.7053879,16.8679348 50.3670259,16.9882609 C50.2688793,19.7513043 50.3179526,22.4519565 50.3179526,24.9119565 L50.7105388,25.9904348 L44.9734267,25.9904348 C45.7050647,24.2479348 45.2187931,21.9082609 45.4195474,19.8671739 L45.3214009,16.9882609 C43.8267796,16.9858115 42.3647544,17.4245786 41.118944,18.2494565 L41.7524353,15.366087 C42.4840733,15.366087 43.362931,15.486413 44.0499569,15.5443478 L53.150819,15.486413 Z" id="Shape" fill="#000000"></path>
                            <path d="M128.384612,25.8701087 L122.959784,25.8701087 C123.155929,25.388665 123.155929,24.8497046 122.959784,24.3682609 C122.469052,23.1070652 122.326293,21.7255435 121.737414,20.5267391 C121.005776,22.2068478 120.46597,24.0696739 119.832478,25.8077174 L119.685259,25.9280435 L114.456724,25.9280435 C114.84931,25.0367391 114.309504,24.1855435 114.162284,23.3477174 C113.087134,20.7673913 112.890841,17.6433696 111.231272,15.4240217 L116.656099,15.366087 L116.852392,15.6067391 C117.58403,18.0667391 118.074763,20.5891304 118.904547,22.9288043 L119.149914,22.6302174 C119.68972,20.7673913 120.617651,19.1496739 120.764871,17.108587 C120.666915,16.4636385 120.35227,15.871154 119.872629,15.4284783 L125.150237,15.3705435 L125.422371,15.6646739 L127.425453,22.9288043 L127.572672,22.8708696 L129.26347,18.0711957 C129.449874,17.1101773 129.199861,16.1160728 128.580905,15.3571739 C129.638211,15.3571739 130.976573,15.3126087 132.002651,15.3571739 L128.384612,25.8701087 Z" id="Shape" fill="#000000"></path>
                            <path d="M139.087047,16.6272826 L139.087047,24.3727174 C139.159538,24.8728771 139.310072,25.3585925 139.533168,25.8121739 C137.677306,25.9325 135.674224,25.8121739 133.769289,25.8745652 C134.01557,25.3450311 134.166583,24.776311 134.215409,24.1944565 L134.117263,16.4534783 L133.724677,15.3126087 L139.475172,15.3126087 L139.087047,16.6272826 Z" id="Shape" fill="#000000"></path>
                            <path d="M75.9520474,15.366087 C75.6532778,15.8979218 75.4994478,16.4987654 75.5059267,17.108587 C75.5059267,19.8716304 75.3096336,22.8129348 75.6531466,25.3932609 L75.8985129,25.9325 L70.098944,25.9904348 C70.3383757,25.4584494 70.4890727,24.8909182 70.5450647,24.3103261 L70.5450647,16.6272826 C70.4497986,16.2098161 70.2997966,15.8067345 70.098944,15.4284783 C71.9458836,15.3036957 74.0471121,15.4240217 75.9520474,15.366087 L75.9520474,15.366087 Z" id="Shape" fill="#000000"></path>
                            <path d="M97.160625,15.4240217 C96.5271336,16.5025 96.7680388,18.0979348 96.7145043,19.4972826 L96.9107974,19.5284783 L100.528836,19.5061957 C100.577909,18.4277174 100.774203,16.8634783 100.381616,15.9053261 L100.078254,15.3972826 L105.953664,15.3972826 C105.680946,15.8985661 105.515363,16.450943 105.467392,17.0194565 L105.565539,24.7648913 C105.620166,25.1672369 105.753566,25.5549002 105.958125,25.9057609 L100.158556,25.9057609 C100.939267,24.7069565 100.502069,22.9198913 100.604677,21.3601087 L100.555603,21.2397826 L96.794806,21.2397826 C96.8438793,22.7995652 96.5003664,24.6178261 97.1873922,25.9369565 L91.3878233,25.9369565 C91.7348924,25.2467179 91.9035911,24.4807112 91.878556,23.7086957 L91.7804095,16.5069565 L91.3878233,15.4284783 L97.1873922,15.4284783 L97.160625,15.4240217 Z" id="Shape" fill="#000000"></path>
                            <path d="M173.683707,19.0872826 C174.038865,20.6170939 173.757117,22.2253948 172.902996,23.5438043 C170.458254,26.5430435 166.501164,26.3068478 163.275711,25.7052174 C161.517996,25.1659783 159.416767,24.0251087 158.975108,21.5651087 C158.778815,20.0053261 158.975108,18.2628261 159.952112,17.0640217 C161.174483,15.6825 162.802823,15.281413 164.275022,14.8357609 C164.655798,14.7956916 165.03881,14.7808041 165.421552,14.7911957 C168.548858,14.8357609 172.461336,14.9516304 173.683707,19.0872826 L173.683707,19.0872826 Z M165.765065,16.2663043 C164.872823,16.4445652 164.346401,17.5275 164.154569,18.4945652 C164.105496,20.3573913 163.761983,22.1578261 164.78806,23.7176087 C165.332727,24.4396689 166.292985,24.7095716 167.134655,24.3771739 C167.686033,24.1023398 168.107357,23.6222468 168.307953,23.0402174 C168.805079,21.2096729 168.788101,19.2777394 168.258879,17.4561957 C167.842399,16.492439 166.777237,15.984211 165.765065,16.2663043 L165.765065,16.2663043 Z" id="Shape" fill="#000000"></path>
                            <path d="M39.8921121,18.3653261 C40.6222944,20.0507454 40.5317251,21.9786675 39.6467457,23.5883696 C36.9700216,27.1892391 31.1436853,26.7569565 28.8952371,25.6873913 C27.5256466,25.0857609 26.0132974,23.9448913 25.5716379,22.1444565 C25.2375583,20.7294374 25.4112288,19.2421713 26.0623707,17.9419565 C28.1145259,15.0006522 31.5362716,14.8803261 34.7126509,15.178913 C36.6443534,15.486413 38.7188147,16.2663043 39.8921121,18.3653261 L39.8921121,18.3653261 Z M31.6344181,16.9838043 C30.9457699,17.5878629 30.5684201,18.4712455 30.6083405,19.3858696 C30.5637284,21.1283696 30.2157543,23.5883696 31.977931,24.608913 C32.7020302,24.923151 33.5384703,24.831629 34.177306,24.3682609 C34.6551236,23.8508381 34.9660167,23.2017541 35.0695474,22.5054348 C35.167694,20.5846739 35.3639871,18.663913 34.3379095,17.1041304 C33.6167498,16.3407554 32.4183802,16.2893942 31.6344181,16.9882609 L31.6344181,16.9838043 Z" id="Shape" fill="#000000"></path>
                            <path d="M155.312457,16.6272826 C156.583901,17.518587 157.070172,19.2076087 157.070172,20.9501087 C156.960214,21.8769846 156.624783,22.7628779 156.093168,23.5304348 C154.821724,25.1526087 153.064009,25.6294565 151.25722,25.7586957 C148.326207,25.9369565 145.395194,25.8166304 142.410647,25.8790217 C142.945991,25.1570652 142.754159,24.198913 142.803233,23.2986957 L142.754159,16.1682609 L142.361573,15.2769565 C146.755862,15.6646739 151.547198,14.2831522 155.312457,16.6272826 L155.312457,16.6272826 Z M147.835474,16.7476087 L147.835474,24.1320652 L147.982694,24.2523913 C149.321056,24.3103261 150.864634,24.3727174 151.551659,22.7505435 C151.99778,21.413587 152.087004,19.3903261 151.453513,18.1291304 C150.668341,16.5648913 149.200603,16.6272826 147.831013,16.7342391 L147.835474,16.7476087 Z" id="Shape" fill="#000000"></path>
                            <path d="M97.9413362,28.3211957 C93.1053879,33.3615217 87.4842672,36.9044565 81.1805819,37.925 C71.8120474,39.3644565 62.8896336,36.3652174 53.8155388,35.046087 C43.8492026,33.303587 32.754181,32.7643478 23.0332112,35.5273913 C18.1983842,36.8035121 13.5153266,38.5964752 9.06517241,40.8752174 C8.91795259,40.8172826 8.96256466,40.8752174 8.96256466,40.7415217 L12.1880172,39.061413 C23.135819,33.5977174 34.6635776,29.8765217 47.6144612,30.656413 C52.2936213,30.9189714 56.948067,31.5146867 61.5423491,32.4390217 L74.4441595,35.1396739 C81.2831897,36.9222826 89.0055388,35.8616304 94.4303664,30.9995652 L97.655819,28.298913 L97.9502586,28.298913 L97.9413362,28.3211957 Z" id="Shape" fill="#000000"></path>
                        </g>
                    </g>
                </g>
            </g>
        </g>
    </g>
</svg>